<?xml version="1.0" encoding="UTF-8" standalone="no"?>
<!-- Created with Inkscape (http://www.inkscape.org/) -->

<svg
   xmlns:dc="http://purl.org/dc/elements/1.1/"
   xmlns:cc="http://creativecommons.org/ns#"
   xmlns:rdf="http://www.w3.org/1999/02/22-rdf-syntax-ns#"
   xmlns:svg="http://www.w3.org/2000/svg"
   xmlns="http://www.w3.org/2000/svg"
   xmlns:sodipodi="http://sodipodi.sourceforge.net/DTD/sodipodi-0.dtd"
   xmlns:inkscape="http://www.inkscape.org/namespaces/inkscape"
   width="48.61639mm"
   height="48.86771mm"
   viewBox="0 0 172.2628 173.1533"
   id="svg12313"
   version="1.1"
   inkscape:version="0.91 r13725"
   sodipodi:docname="irma-logo-c.svg">
  <defs
     id="defs12315">
    <marker
       inkscape:stockid="DotL"
       orient="auto"
       refY="0"
       refX="0"
       id="DotL"
       style="overflow:visible"
       inkscape:isstock="true">
      <path
         id="path5780"
         d="m -2.5,-1 c 0,2.76 -2.24,5 -5,5 -2.76,0 -5,-2.24 -5,-5 0,-2.76 2.24,-5 5,-5 2.76,0 5,2.24 5,5 z"
         style="fill-rule:evenodd;stroke:#000000;stroke-width:1pt"
         transform="matrix(0.8,0,0,0.8,5.92,0.8)"
         inkscape:connector-curvature="0" />
    </marker>
    <marker
       inkscape:stockid="DotL"
       orient="auto"
       refY="0"
       refX="0"
       id="marker69297"
       style="overflow:visible"
       inkscape:isstock="true">
      <path
         id="path69299"
         d="m -2.5,-1 c 0,2.76 -2.24,5 -5,5 -2.76,0 -5,-2.24 -5,-5 0,-2.76 2.24,-5 5,-5 2.76,0 5,2.24 5,5 z"
         style="fill:#216778;fill-opacity:1;fill-rule:evenodd;stroke:#216778;stroke-width:1pt;stroke-opacity:1"
         transform="matrix(0.8,0,0,0.8,5.92,0.8)"
         inkscape:connector-curvature="0" />
    </marker>
    <marker
       inkscape:stockid="DotL"
       orient="auto"
       refY="0"
       refX="0"
       id="marker69233"
       style="overflow:visible"
       inkscape:isstock="true">
      <path
         id="path69235"
         d="m -2.5,-1 c 0,2.76 -2.24,5 -5,5 -2.76,0 -5,-2.24 -5,-5 0,-2.76 2.24,-5 5,-5 2.76,0 5,2.24 5,5 z"
         style="fill:#216778;fill-opacity:1;fill-rule:evenodd;stroke:#216778;stroke-width:1pt;stroke-opacity:1"
         transform="matrix(0.8,0,0,0.8,5.92,0.8)"
         inkscape:connector-curvature="0" />
    </marker>
    <marker
       inkscape:stockid="DotL"
       orient="auto"
       refY="0"
       refX="0"
       id="marker68345"
       style="overflow:visible"
       inkscape:isstock="true">
      <path
         id="path68347"
         d="m -2.5,-1 c 0,2.76 -2.24,5 -5,5 -2.76,0 -5,-2.24 -5,-5 0,-2.76 2.24,-5 5,-5 2.76,0 5,2.24 5,5 z"
         style="fill:#216778;fill-opacity:1;fill-rule:evenodd;stroke:#216778;stroke-width:1pt;stroke-opacity:1"
         transform="matrix(0.8,0,0,0.8,5.92,0.8)"
         inkscape:connector-curvature="0" />
    </marker>
    <marker
       inkscape:stockid="DotL"
       orient="auto"
       refY="0"
       refX="0"
       id="marker68293"
       style="overflow:visible"
       inkscape:isstock="true">
      <path
         id="path68295"
         d="m -2.5,-1 c 0,2.76 -2.24,5 -5,5 -2.76,0 -5,-2.24 -5,-5 0,-2.76 2.24,-5 5,-5 2.76,0 5,2.24 5,5 z"
         style="fill:#216778;fill-opacity:1;fill-rule:evenodd;stroke:#216778;stroke-width:1pt;stroke-opacity:1"
         transform="matrix(0.8,0,0,0.8,5.92,0.8)"
         inkscape:connector-curvature="0" />
    </marker>
    <marker
       inkscape:isstock="true"
       style="overflow:visible"
       id="marker56989"
       refX="0"
       refY="0"
       orient="auto"
       inkscape:stockid="DotL">
      <path
         transform="matrix(0.8,0,0,0.8,5.92,0.8)"
         style="fill:#2ad4ff;fill-opacity:1;fill-rule:evenodd;stroke:#216778;stroke-width:1pt;stroke-opacity:1"
         d="m -2.5,-1 c 0,2.76 -2.24,5 -5,5 -2.76,0 -5,-2.24 -5,-5 0,-2.76 2.24,-5 5,-5 2.76,0 5,2.24 5,5 z"
         id="path56991"
         inkscape:connector-curvature="0" />
    </marker>
    <marker
       inkscape:isstock="true"
       style="overflow:visible"
       id="marker56961"
       refX="0"
       refY="0"
       orient="auto"
       inkscape:stockid="DotL">
      <path
         transform="matrix(0.8,0,0,0.8,5.92,0.8)"
         style="fill:#2ad4ff;fill-opacity:1;fill-rule:evenodd;stroke:#216778;stroke-width:1pt;stroke-opacity:1"
         d="m -2.5,-1 c 0,2.76 -2.24,5 -5,5 -2.76,0 -5,-2.24 -5,-5 0,-2.76 2.24,-5 5,-5 2.76,0 5,2.24 5,5 z"
         id="path56963"
         inkscape:connector-curvature="0" />
    </marker>
    <marker
       inkscape:stockid="SquareL"
       orient="auto"
       refY="0"
       refX="0"
       id="SquareL"
       style="overflow:visible"
       inkscape:isstock="true">
      <path
         id="path55910"
         d="M -5,-5 -5,5 5,5 5,-5 -5,-5 Z"
         style="fill:#999999;fill-opacity:0.33333333;fill-rule:evenodd;stroke:#00aad4;stroke-width:1pt;stroke-opacity:1"
         transform="scale(0.8,0.8)"
         inkscape:connector-curvature="0" />
    </marker>
  </defs>
  <sodipodi:namedview
     id="base"
     pagecolor="#ffffff"
     bordercolor="#666666"
     borderopacity="1.0"
     inkscape:pageopacity="0.0"
     inkscape:pageshadow="2"
     inkscape:zoom="1.497712"
     inkscape:cx="103.52094"
     inkscape:cy="207.63521"
     inkscape:document-units="px"
     inkscape:current-layer="layer1"
     showgrid="false"
     inkscape:window-width="1440"
     inkscape:window-height="851"
     inkscape:window-x="0"
     inkscape:window-y="1"
     inkscape:window-maximized="1"
     fit-margin-top="0"
     fit-margin-left="0"
     fit-margin-right="0"
     fit-margin-bottom="0" />
  <metadata
     id="metadata12318">
    <rdf:RDF>
      <cc:Work
         rdf:about="">
        <dc:format>image/svg+xml</dc:format>
        <dc:type
           rdf:resource="http://purl.org/dc/dcmitype/StillImage" />
        <dc:title></dc:title>
      </cc:Work>
    </rdf:RDF>
  </metadata>
  <g
     inkscape:label="Layer 1"
     inkscape:groupmode="layer"
     id="layer1"
     transform="translate(-770.54179,-636.85377)">
    <g
       id="g24063"
       transform="matrix(1.4838439,0,0,1.4838439,695.44825,-294.55718)"
       style="stroke:none">
      <path
         id="path4368"
         d="m 71.357644,642.62518 a 20.750308,20.750308 0 0 0 -20.750224,20.75023 20.750308,20.750308 0 0 0 20.669241,20.74634 31.937432,31.937432 0 0 1 -0.891511,-7.32979 31.937432,31.937432 0 0 1 16.047237,-27.65778 20.750308,20.750308 0 0 0 -15.074743,-6.509 z"
         style="fill:#4d4d4d;fill-opacity:1;stroke:none;stroke-width:0.14340994;stroke-opacity:1"
         inkscape:connector-curvature="0" />
      <path
         id="path4365"
         d="m 83.651403,702.666 a 25.001399,25.001401 0 0 0 -6.457016,16.72657 25.001399,25.001401 0 0 0 25.001263,25.00127 25.001399,25.001401 0 0 0 25.00162,-25.00127 25.001399,25.001401 0 0 0 -6.36648,-16.62154 31.937432,31.937432 0 0 1 -18.50818,5.95839 31.937432,31.937432 0 0 1 -18.671207,-6.06342 z"
         style="fill:#4d4d4d;fill-opacity:1;stroke:none;stroke-width:0.86237133;stroke-opacity:0.5"
         inkscape:connector-curvature="0" />
      <path
         id="circle4370"
         d="m 131.61276,627.70144 a 35.086819,35.086819 0 0 0 -30.12791,17.18276 31.937432,31.937432 0 0 1 0.83776,-0.0297 31.937432,31.937432 0 0 1 31.93746,31.93747 31.937432,31.937432 0 0 1 -7.61482,20.68657 35.086819,35.086819 0 0 0 4.96751,0.39642 35.086819,35.086819 0 0 0 35.08693,-35.08657 35.086819,35.086819 0 0 0 -35.08693,-35.08694 z"
         style="fill:#4d4d4d;fill-opacity:1;stroke:none;stroke-width:1.33928716;stroke-opacity:0.5"
         inkscape:connector-curvature="0" />
      <circle
         r="19.433695"
         cy="676.73395"
         cx="102.4197"
         id="circle4376"
         style="fill:#00d455;fill-opacity:1;stroke:none;stroke-width:0.1343105;stroke-opacity:1" />
    </g>
  </g>
</svg>
