<?xml version="1.0" encoding="UTF-8" standalone="no"?>
<!-- Created with Inkscape (http://www.inkscape.org/) -->

<svg
   xmlns:dc="http://purl.org/dc/elements/1.1/"
   xmlns:cc="http://creativecommons.org/ns#"
   xmlns:rdf="http://www.w3.org/1999/02/22-rdf-syntax-ns#"
   xmlns:svg="http://www.w3.org/2000/svg"
   xmlns="http://www.w3.org/2000/svg"
   xmlns:sodipodi="http://sodipodi.sourceforge.net/DTD/sodipodi-0.dtd"
   xmlns:inkscape="http://www.inkscape.org/namespaces/inkscape"
   id="svg2"
   version="1.1"
   inkscape:version="0.91 r13725"
   xml:space="preserve"
   width="269.88693"
   height="85.71241"
   viewBox="0 0 269.88693 85.712412"
   sodipodi:docname="irma-words-w.svg"
   inkscape:export-filename="/Users/moca/Desktop/Irma/irma-logo.png"
   inkscape:export-xdpi="90"
   inkscape:export-ydpi="90"><metadata
     id="metadata8"><rdf:RDF><cc:Work
         rdf:about=""><dc:format>image/svg+xml</dc:format><dc:type
           rdf:resource="http://purl.org/dc/dcmitype/StillImage" /><dc:title /></cc:Work></rdf:RDF></metadata><defs
     id="defs6" /><sodipodi:namedview
     pagecolor="#ffffff"
     bordercolor="#666666"
     borderopacity="1"
     objecttolerance="10"
     gridtolerance="10"
     guidetolerance="10"
     inkscape:pageopacity="0"
     inkscape:pageshadow="2"
     inkscape:window-width="1293"
     inkscape:window-height="815"
     id="namedview4"
     showgrid="false"
     fit-margin-top="0"
     fit-margin-left="0"
     fit-margin-right="0"
     fit-margin-bottom="0"
     inkscape:zoom="3.1976354"
     inkscape:cx="126.187"
     inkscape:cy="42.856205"
     inkscape:window-x="8"
     inkscape:window-y="22"
     inkscape:window-maximized="0"
     inkscape:current-layer="text3380" /><g
     id="g10"
     inkscape:groupmode="layer"
     inkscape:label="irma-logo"
     transform="matrix(1.25,0,0,-1.25,-1.3444237,10.731312)"><g
       transform="scale(1,-1)"
       style="font-style:normal;font-weight:normal;font-size:39.00867081px;line-height:125%;font-family:Sans;letter-spacing:0px;word-spacing:0px;fill:#666666;fill-opacity:1;stroke:none;stroke-width:1px;stroke-linecap:butt;stroke-linejoin:miter;stroke-opacity:1"
       id="text3380"><g
         id="g4146"
         style="fill:#ffffff"><path
           id="path4136"
           style="font-style:normal;font-variant:normal;font-weight:normal;font-stretch:normal;font-size:87.76950836px;font-family:Comfortaa;-inkscape-font-specification:Comfortaa;fill:#ffffff"
           d="m 9.64678,1.7004394 q 0,1.7571044 -1.2856861,3.0427906 -1.24283,1.2428299 -2.9999344,1.2428299 -1.7571044,0 -3.0427906,-1.2428299 Q 1.075539,3.4575438 1.075539,1.7004394 q 0,-1.75710442 1.2428299,-2.9999344 1.2856862,-1.2856861 3.0427906,-1.2856861 1.7571044,0 2.9999344,1.2856861 Q 9.64678,-0.05666502 9.64678,1.7004394 Z M 1.9326631,15.414425 q 0,-1.414255 0.9856927,-2.399947 1.0285489,-1.028549 2.4428037,-1.028549 1.4142548,0 2.3999475,1.028549 1.0285489,0.985692 1.0285489,2.399947 l 0,41.141957 q 0,1.414255 -1.0285489,2.442804 -0.9856927,0.985693 -2.3999475,0.985693 -1.4142548,0 -2.4428037,-0.985693 -0.9856927,-1.028549 -0.9856927,-2.442804 l 0,-41.141957 z" /><path
           id="path4138"
           style="font-style:normal;font-variant:normal;font-weight:normal;font-stretch:normal;font-size:87.76950836px;font-family:Comfortaa;-inkscape-font-specification:Comfortaa;fill:#ffffff"
           d="m 19.075145,15.414425 q 0,-1.414255 0.985693,-2.399947 1.028548,-1.028549 2.442803,-1.028549 1.414255,0 2.399948,1.028549 1.028549,0.985692 1.028549,2.399947 l 0,3.771346 q 7.199842,-7.199842 17.142482,-7.199842 5.014176,0 9.214084,1.714248 0.771412,0.299993 1.414255,0.89998 0.985692,1.028549 0.985692,2.442804 0,1.414255 -1.028549,2.442804 -0.985692,0.985692 -2.399947,0.985692 -0.814268,0 -1.499967,-0.342849 -3.042791,-1.285687 -6.685568,-1.285687 -7.11413,0 -12.128306,5.014177 -5.014176,5.014176 -5.014176,12.128306 l 0,20.570978 q 0,1.414255 -1.028549,2.442804 -0.985693,0.985693 -2.399948,0.985693 -1.414255,0 -2.442803,-0.985693 -0.985693,-1.028549 -0.985693,-2.442804 l 0,-41.141957 z" /><path
           id="path4140"
           style="font-style:normal;font-variant:normal;font-weight:normal;font-stretch:normal;font-size:87.76950836px;font-family:Comfortaa;-inkscape-font-specification:Comfortaa;fill:#ffffff"
           d="m 67.074096,56.556382 q 0,1.414255 -1.028549,2.442804 -0.985693,0.985693 -2.399948,0.985693 -1.414254,0 -2.442803,-0.985693 -0.985693,-1.028549 -0.985693,-2.442804 l 0,-41.141957 q 0,-1.414255 0.985693,-2.399947 1.028549,-1.028549 2.442803,-1.028549 1.414255,0 2.399948,1.028549 1.028549,0.985692 1.028549,2.399947 l 0,0.89998 q 5.099888,-4.328476 11.999737,-4.328476 7.79983,0 13.32828,5.52845 1.157118,1.157118 2.099954,2.442804 0.942837,-1.285686 2.099954,-2.442804 5.528449,-5.52845 13.328279,-5.52845 7.79983,0 13.32828,5.52845 5.52845,5.528451 5.52845,13.32828 l 0,25.713723 q 0,1.414255 -1.02855,2.442804 -0.98569,0.985693 -2.39994,0.985693 -1.41426,0 -2.44281,-0.985693 -0.98569,-1.028549 -0.98569,-2.442804 l 0,-25.713723 q 0,-4.97132 -3.51421,-8.485529 -3.51421,-3.514209 -8.48553,-3.514209 -4.97132,0 -8.48553,3.514209 -3.514206,3.514209 -3.514206,8.485529 l 0,25.713723 q 0,1.414255 -1.028549,2.442804 -0.985693,0.985693 -2.399948,0.985693 -1.414255,0 -2.442803,-0.985693 -0.985693,-1.028549 -0.985693,-2.442804 l 0,-25.713723 q 0,-4.97132 -3.514209,-8.485529 -3.514209,-3.514209 -8.485529,-3.514209 -4.971319,0 -8.485528,3.514209 -3.514209,3.514209 -3.514209,8.485529 l 0,25.713723 z" /><path
           id="path4142"
           style="font-style:normal;font-variant:normal;font-weight:normal;font-stretch:normal;font-size:87.76950836px;font-family:Comfortaa;-inkscape-font-specification:Comfortaa;fill:#ffffff"
           d="m 159.64349,18.842921 q -7.11413,0 -12.12831,5.014177 -5.01417,5.014176 -5.01417,12.128306 0,7.11413 5.01417,12.128306 5.01418,5.014176 12.12831,5.014176 7.11413,0 12.1283,-5.014176 5.01418,-5.014176 5.01418,-12.128306 0,-7.11413 -5.01418,-12.128306 -5.01417,-5.014177 -12.1283,-5.014177 z m 17.14248,33.942115 q -7.19984,7.199843 -17.14248,7.199843 -9.94264,0 -16.97106,-7.028418 -7.02842,-7.028418 -7.02842,-16.971057 0,-9.94264 7.02842,-16.971058 7.02842,-7.028417 16.97106,-7.028417 9.94264,0 16.97106,7.028417 7.02841,7.028418 7.02841,16.971058 l 0,20.570978 q 0,1.414255 -1.02855,2.442804 -0.98569,0.985693 -2.39994,0.985693 -1.41426,0 -2.44281,-0.985693 -0.98569,-1.028549 -0.98569,-2.442804 l 0,-3.771346 z" /><path
           id="path4144"
           style="font-style:normal;font-variant:normal;font-weight:normal;font-stretch:normal;font-size:87.76950836px;font-family:Comfortaa;-inkscape-font-specification:Comfortaa;fill:#ffffff"
           d="M 202.54255,5.5146417 194.18559,5.171792 q -0.59999,-0.042856 -1.15712,-0.214281 -1.32854,-0.4714183 -1.92853,-1.7571044 -0.3857,-0.7285555 -0.3857,-1.4999672 0,-0.5571307 0.21428,-1.11426134 0.47142,-1.37139857 1.7571,-1.97138546 1.28569,-0.5999869 2.61423,-0.1285686 0.59999,0.214281 1.02855,0.55713067 l 6.72842,5.01417603 -2.48566,-8.0569666 q -0.17142,-0.5571307 -0.17142,-1.1571175 0,-1.4142548 0.98569,-2.3999475 1.02855,-1.028549 2.44281,-1.028549 1.41425,0 2.39994,1.028549 1.02855,0.9856927 1.02855,2.3999475 0,0.5999868 -0.17142,1.1571175 l -2.48566,8.0998228 6.77128,-5.05703223 q 0.47142,-0.34284967 1.02855,-0.55713067 1.32854,-0.4714183 2.61422,0.1285686 1.28569,0.59998689 1.75711,1.97138546 0.21428,0.59998684 0.21428,1.15711754 0,0.7285555 -0.34285,1.457111 -0.59999,1.2856861 -1.92853,1.7571044 -0.59999,0.1714248 -1.15712,0.214281 l -8.39981,0.3428497 6.89985,4.7998953 q 0.47141,0.299993 0.85712,0.814268 0.85712,1.114261 0.6857,2.528516 -0.17142,1.414254 -1.28569,2.271379 -0.94283,0.728555 -2.52851,0.685699 -1.41426,-0.171425 -2.27138,-1.285686 -0.38571,-0.471419 -0.55713,-1.028549 l -3.08565,-7.7569734 -3.1285,7.7569734 q -0.17143,0.55713 -0.55713,1.028549 -0.85713,1.328542 -2.7428,1.328542 -1.11426,0 -2.0571,-0.728555 -1.11426,-0.857125 -1.28568,-2.271379 -0.17143,-1.414255 0.6857,-2.528516 0.3857,-0.514275 0.85712,-0.814268 l 6.89985,-4.7998953 z" /></g></g></g></svg>