<?xml version="1.0" encoding="UTF-8" standalone="no"?>
<!-- Created with Inkscape (http://www.inkscape.org/) -->

<svg
   xmlns:dc="http://purl.org/dc/elements/1.1/"
   xmlns:cc="http://creativecommons.org/ns#"
   xmlns:rdf="http://www.w3.org/1999/02/22-rdf-syntax-ns#"
   xmlns:svg="http://www.w3.org/2000/svg"
   xmlns="http://www.w3.org/2000/svg"
   xmlns:sodipodi="http://sodipodi.sourceforge.net/DTD/sodipodi-0.dtd"
   xmlns:inkscape="http://www.inkscape.org/namespaces/inkscape"
   width="141.11111mm"
   height="141.75301mm"
   viewBox="0 0 500.00002 502.27443"
   id="svg2"
   version="1.1"
   inkscape:version="0.91 r13725"
   sodipodi:docname="Irma-Final-Logo-White.svg"
   inkscape:export-filename="/Users/moca/Desktop/irma-logo-black-32.png"
   inkscape:export-xdpi="4.488965"
   inkscape:export-ydpi="4.488965">
  <defs
     id="defs4" />
  <sodipodi:namedview
     id="base"
     pagecolor="#ffffff"
     bordercolor="#666666"
     borderopacity="1.0"
     inkscape:pageopacity="0.0"
     inkscape:pageshadow="2"
     inkscape:zoom="1.2921223"
     inkscape:cx="250.00001"
     inkscape:cy="251.13722"
     inkscape:document-units="px"
     inkscape:current-layer="layer1"
     showgrid="false"
     inkscape:window-width="1440"
     inkscape:window-height="851"
     inkscape:window-x="21"
     inkscape:window-y="23"
     inkscape:window-maximized="0"
     fit-margin-top="0"
     fit-margin-left="0"
     fit-margin-right="0"
     fit-margin-bottom="0" />
  <metadata
     id="metadata7">
    <rdf:RDF>
      <cc:Work
         rdf:about="">
        <dc:format>image/svg+xml</dc:format>
        <dc:type
           rdf:resource="http://purl.org/dc/dcmitype/StillImage" />
        <dc:title />
      </cc:Work>
    </rdf:RDF>
  </metadata>
  <g
     inkscape:label="Layer 1"
     inkscape:groupmode="layer"
     id="layer1"
     transform="translate(-79.495713,-145.71118)">
    <path
       inkscape:connector-curvature="0"
       style="fill:#ffffff;fill-opacity:0.8888889;stroke:none;stroke-width:0.60990673;stroke-opacity:1;opacity:1"
       d="m 171.03278,212.17745 a 88.248787,88.248787 0 0 0 -88.248431,88.24843 88.248787,88.248787 0 0 0 87.904021,88.2319 135.8264,135.8264 0 0 1 -3.7915,-31.17279 135.8264,135.8264 0 0 1 68.24714,-117.62548 88.248787,88.248787 0 0 0 -64.11123,-27.68206 z"
       id="path4368" />
    <path
       inkscape:connector-curvature="0"
       style="fill:#ffffff;fill-opacity:0.8888889;stroke:none;stroke-width:0.86237133;stroke-opacity:0.5;opacity:1"
       d="m 223.31679,467.52445 a 106.32821,106.32822 0 0 0 -27.46098,71.13627 106.32821,106.32822 0 0 0 106.32765,106.32766 106.32821,106.32822 0 0 0 106.32916,-106.32766 106.32821,106.32822 0 0 0 -27.07597,-70.68959 135.8264,135.8264 0 0 1 -78.71326,25.34039 135.8264,135.8264 0 0 1 -79.4066,-25.78707 z"
       id="path4365" />
    <path
       inkscape:connector-curvature="0"
       style="fill:#ffffff;fill-opacity:0.8888889;stroke:none;stroke-width:1.33928716;stroke-opacity:0.5;opacity:1"
       d="m 427.29119,148.70841 a 149.2204,149.2204 0 0 0 -128.1307,73.07639 135.8264,135.8264 0 0 1 3.5629,-0.12634 135.8264,135.8264 0 0 1 135.82652,135.82653 135.8264,135.8264 0 0 1 -32.38498,87.97773 149.2204,149.2204 0 0 0 21.12626,1.68595 A 149.2204,149.2204 0 0 0 576.51207,297.92929 149.2204,149.2204 0 0 0 427.29119,148.70841 Z"
       id="circle4370" />
    <circle
       style="fill:#ffffff;fill-opacity:0.8888889;stroke:none;stroke-width:0.57120782;stroke-opacity:1;opacity:1"
       id="circle4376"
       cx="303.13629"
       cy="357.23816"
       r="82.649376" />
    <path
       style="fill:#f2f2f2;fill-opacity:0;stroke:#ffffff;stroke-width:0.77392054;stroke-opacity:0.5"
       d="m 334.66691,300.76881 c -1.48979,-0.1489 -3.84775,-0.45856 -5.23991,-0.68812 l -2.53119,-0.41739 3.39124,-4.41198 c 19.19316,-24.97024 28.52074,-52.53409 28.46811,-84.1258 -0.0362,-21.74199 -4.32059,-39.89651 -14.06334,-59.59188 -16.00789,-32.36056 -43.54895,-56.526427 -77.94877,-68.396 -12.14931,-4.192086 -28.64537,-7.061251 -40.59819,-7.061251 -3.31,0 -6.01819,-0.182189 -6.01819,-0.404865 0,-0.8823 8.14497,-12.662947 12.13783,-17.555796 21.73979,-26.639966 52.02243,-44.892487 86.53704,-52.1592308 11.61845,-2.4461591 33.90727,-3.3675268 45.76973,-1.8920129 28.6139,3.5591413 53.12027,13.5835587 75.1405,30.7364777 55.81741,43.479631 73.24148,121.537928 41.17284,184.450728 -9.84065,19.30556 -22.93667,35.54134 -39.80362,49.3465 -20.12837,16.47455 -47.28061,28.01116 -74.14253,31.50213 -8.14098,1.058 -24.90115,1.40518 -32.27155,0.66849 z"
       id="path3343"
       inkscape:connector-curvature="0"
       transform="translate(79.495713,145.71116)" />
  </g>
</svg>
