<?xml version="1.0" encoding="iso-8859-1"?>
<!-- Generator: Adobe Illustrator 19.1.0, SVG Export Plug-In . SVG Version: 6.00 Build 0)  -->
<svg version="1.1" id="Capa_1" xmlns="http://www.w3.org/2000/svg" xmlns:xlink="http://www.w3.org/1999/xlink" x="0px" y="0px"
	 viewBox="0 0 504 504" style="enable-background:new 0 0 504 504;" xml:space="preserve">
<g>
	<g>
		<rect x="296" y="24" style="fill:#8B8996;" width="48" height="72"/>
	</g>
	<g>
		<path style="fill:#5C546A;" d="M320,344L320,344c-13.255,0-24-10.745-24-24v-39c0-0.552,0.448-1,1-1h46c0.552,0,1,0.448,1,1v39
			C344,333.255,333.255,344,320,344z"/>
	</g>
	<g>
		<rect x="216" y="416" style="fill:#8B8996;" width="80" height="80"/>
	</g>
	<g>
		<g>
			<path style="fill:#5C546A;" d="M392,504H120c-4.422,0-8-3.582-8-8s3.578-8,8-8h272c4.422,0,8,3.582,8,8S396.422,504,392,504z"/>
		</g>
	</g>
	<g>
		<path style="fill:#B9BBC1;" d="M352,80h-64c-8.82,0-16,7.176-16,16v56c0,4.418,3.578,8,8,8v80c-4.422,0-8,3.582-8,8v32
			c0,8.824,7.18,16,16,16h64c8.82,0,16-7.176,16-16V96C368,87.176,360.82,80,352,80z"/>
	</g>
	<g>
		<path style="fill:#5C546A;" d="M344,32h-48c-4.418,0-8-3.582-8-8V8c0-4.418,3.582-8,8-8h48c4.418,0,8,3.582,8,8v16
			C352,28.418,348.418,32,344,32z"/>
	</g>
	<g>
		<path style="fill:#5C546A;" d="M320,384h56c4.422,0,8-3.582,8-8s-3.578-8-8-8H234.742c-39.391,0-72.148-29.516-74.586-67.191
			c-1.305-20.176,5.547-39.363,19.305-54.035C193.226,232.086,211.883,224,232,224c4.422,0,8-3.582,8-8s-3.578-8-8-8v-24
			c4.422,0,8-3.582,8-8s-3.578-8-8-8c-35.336,0-68.234,14.086-92.625,39.66c-24.383,25.559-36.898,59.125-35.227,94.516
			C107.359,370.488,165.008,424,235.39,424H296c13.234,0,24-10.766,24-24V384z"/>
	</g>
	<g>
		<circle style="fill:#8B8996;" cx="280" cy="200" r="56"/>
	</g>
	<g>
		<circle style="fill:#5C546A;" cx="280" cy="200" r="32"/>
	</g>
</g>
<g>
</g>
<g>
</g>
<g>
</g>
<g>
</g>
<g>
</g>
<g>
</g>
<g>
</g>
<g>
</g>
<g>
</g>
<g>
</g>
<g>
</g>
<g>
</g>
<g>
</g>
<g>
</g>
<g>
</g>
</svg>
