<?xml version="1.0" encoding="UTF-8" standalone="no"?>
<!-- Created with Inkscape (http://www.inkscape.org/) -->

<svg
   xmlns:dc="http://purl.org/dc/elements/1.1/"
   xmlns:cc="http://creativecommons.org/ns#"
   xmlns:rdf="http://www.w3.org/1999/02/22-rdf-syntax-ns#"
   xmlns:svg="http://www.w3.org/2000/svg"
   xmlns="http://www.w3.org/2000/svg"
   xmlns:sodipodi="http://sodipodi.sourceforge.net/DTD/sodipodi-0.dtd"
   xmlns:inkscape="http://www.inkscape.org/namespaces/inkscape"
   width="39.296516mm"
   height="42.333336mm"
   viewBox="0 0 139.23962 150.00001"
   id="svg12313"
   version="1.1"
   inkscape:version="0.91 r13725"
   sodipodi:docname="smart-meters-maps.svg">
  <defs
     id="defs12315">
    <inkscape:path-effect
       effect="powerstroke"
       id="path-effect13581"
       is_visible="true"
       offset_points=""
       sort_points="true"
       interpolator_type="Linear"
       interpolator_beta="0.2"
       start_linecap_type="round"
       linejoin_type="round"
       miter_limit="4"
       end_linecap_type="round" />
    <inkscape:path-effect
       effect="skeletal"
       id="path-effect13569"
       is_visible="false"
       pattern="M 0,0 1,0"
       copytype="single_stretched"
       prop_scale="1"
       scale_y_rel="false"
       spacing="0"
       normal_offset="0"
       tang_offset="0"
       prop_units="false"
       vertical_pattern="false"
       fuse_tolerance="0" />
    <marker
       inkscape:stockid="DotL"
       orient="auto"
       refY="0"
       refX="0"
       id="DotL"
       style="overflow:visible"
       inkscape:isstock="true">
      <path
         id="path4335"
         d="m -2.5,-1 c 0,2.76 -2.24,5 -5,5 -2.76,0 -5,-2.24 -5,-5 0,-2.76 2.24,-5 5,-5 2.76,0 5,2.24 5,5 z"
         style="fill-rule:evenodd;stroke:#000000;stroke-width:1pt"
         transform="matrix(0.8,0,0,0.8,5.92,0.8)"
         inkscape:connector-curvature="0" />
    </marker>
    <marker
       inkscape:stockid="DotL"
       orient="auto"
       refY="0"
       refX="0"
       id="marker69297"
       style="overflow:visible"
       inkscape:isstock="true">
      <path
         id="path69299"
         d="m -2.5,-1 c 0,2.76 -2.24,5 -5,5 -2.76,0 -5,-2.24 -5,-5 0,-2.76 2.24,-5 5,-5 2.76,0 5,2.24 5,5 z"
         style="fill:#216778;fill-opacity:1;fill-rule:evenodd;stroke:#216778;stroke-width:1pt;stroke-opacity:1"
         transform="matrix(0.8,0,0,0.8,5.92,0.8)"
         inkscape:connector-curvature="0" />
    </marker>
    <marker
       inkscape:stockid="DotL"
       orient="auto"
       refY="0"
       refX="0"
       id="marker69233"
       style="overflow:visible"
       inkscape:isstock="true">
      <path
         id="path69235"
         d="m -2.5,-1 c 0,2.76 -2.24,5 -5,5 -2.76,0 -5,-2.24 -5,-5 0,-2.76 2.24,-5 5,-5 2.76,0 5,2.24 5,5 z"
         style="fill:#216778;fill-opacity:1;fill-rule:evenodd;stroke:#216778;stroke-width:1pt;stroke-opacity:1"
         transform="matrix(0.8,0,0,0.8,5.92,0.8)"
         inkscape:connector-curvature="0" />
    </marker>
    <marker
       inkscape:stockid="DotL"
       orient="auto"
       refY="0"
       refX="0"
       id="marker68345"
       style="overflow:visible"
       inkscape:isstock="true">
      <path
         id="path68347"
         d="m -2.5,-1 c 0,2.76 -2.24,5 -5,5 -2.76,0 -5,-2.24 -5,-5 0,-2.76 2.24,-5 5,-5 2.76,0 5,2.24 5,5 z"
         style="fill:#216778;fill-opacity:1;fill-rule:evenodd;stroke:#216778;stroke-width:1pt;stroke-opacity:1"
         transform="matrix(0.8,0,0,0.8,5.92,0.8)"
         inkscape:connector-curvature="0" />
    </marker>
    <marker
       inkscape:stockid="DotL"
       orient="auto"
       refY="0"
       refX="0"
       id="marker68293"
       style="overflow:visible"
       inkscape:isstock="true">
      <path
         id="path68295"
         d="m -2.5,-1 c 0,2.76 -2.24,5 -5,5 -2.76,0 -5,-2.24 -5,-5 0,-2.76 2.24,-5 5,-5 2.76,0 5,2.24 5,5 z"
         style="fill:#216778;fill-opacity:1;fill-rule:evenodd;stroke:#216778;stroke-width:1pt;stroke-opacity:1"
         transform="matrix(0.8,0,0,0.8,5.92,0.8)"
         inkscape:connector-curvature="0" />
    </marker>
    <marker
       inkscape:isstock="true"
       style="overflow:visible"
       id="marker56989"
       refX="0"
       refY="0"
       orient="auto"
       inkscape:stockid="DotL">
      <path
         transform="matrix(0.8,0,0,0.8,5.92,0.8)"
         style="fill:#2ad4ff;fill-opacity:1;fill-rule:evenodd;stroke:#216778;stroke-width:1pt;stroke-opacity:1"
         d="m -2.5,-1 c 0,2.76 -2.24,5 -5,5 -2.76,0 -5,-2.24 -5,-5 0,-2.76 2.24,-5 5,-5 2.76,0 5,2.24 5,5 z"
         id="path56991"
         inkscape:connector-curvature="0" />
    </marker>
    <marker
       inkscape:isstock="true"
       style="overflow:visible"
       id="marker56961"
       refX="0"
       refY="0"
       orient="auto"
       inkscape:stockid="DotL">
      <path
         transform="matrix(0.8,0,0,0.8,5.92,0.8)"
         style="fill:#2ad4ff;fill-opacity:1;fill-rule:evenodd;stroke:#216778;stroke-width:1pt;stroke-opacity:1"
         d="m -2.5,-1 c 0,2.76 -2.24,5 -5,5 -2.76,0 -5,-2.24 -5,-5 0,-2.76 2.24,-5 5,-5 2.76,0 5,2.24 5,5 z"
         id="path56963"
         inkscape:connector-curvature="0" />
    </marker>
    <marker
       inkscape:stockid="SquareL"
       orient="auto"
       refY="0"
       refX="0"
       id="SquareL"
       style="overflow:visible"
       inkscape:isstock="true">
      <path
         id="path55910"
         d="M -5,-5 -5,5 5,5 5,-5 -5,-5 Z"
         style="fill:#999999;fill-opacity:0.33333333;fill-rule:evenodd;stroke:#00aad4;stroke-width:1pt;stroke-opacity:1"
         transform="scale(0.8,0.8)"
         inkscape:connector-curvature="0" />
    </marker>
  </defs>
  <sodipodi:namedview
     id="base"
     pagecolor="#ffffff"
     bordercolor="#666666"
     borderopacity="1.0"
     inkscape:pageopacity="0.0"
     inkscape:pageshadow="2"
     inkscape:zoom="2.9607528"
     inkscape:cx="60.73736"
     inkscape:cy="16.395424"
     inkscape:document-units="px"
     inkscape:current-layer="layer1"
     showgrid="true"
     inkscape:window-width="1440"
     inkscape:window-height="851"
     inkscape:window-x="0"
     inkscape:window-y="1"
     inkscape:window-maximized="1"
     fit-margin-top="0"
     fit-margin-left="0"
     fit-margin-right="0"
     fit-margin-bottom="0" />
  <metadata
     id="metadata12318">
    <rdf:RDF>
      <cc:Work
         rdf:about="">
        <dc:format>image/svg+xml</dc:format>
        <dc:type
           rdf:resource="http://purl.org/dc/dcmitype/StillImage" />
        <dc:title></dc:title>
      </cc:Work>
    </rdf:RDF>
  </metadata>
  <g
     inkscape:label="Layer 1"
     inkscape:groupmode="layer"
     id="layer1"
     transform="translate(258.12306,-777.45107)">
    <g
       id="g5250"
       transform="translate(-166.33792,294.13237)" />
    <g
       id="g5252"
       transform="translate(-166.33792,294.13237)" />
    <g
       id="g5254"
       transform="translate(-166.33792,294.13237)" />
    <g
       id="g5256"
       transform="translate(-166.33792,294.13237)" />
    <g
       id="g5258"
       transform="translate(-166.33792,294.13237)" />
    <g
       id="g5260"
       transform="translate(-166.33792,294.13237)" />
    <g
       id="g5262"
       transform="translate(-166.33792,294.13237)" />
    <g
       id="g5264"
       transform="translate(-166.33792,294.13237)" />
    <g
       id="g5266"
       transform="translate(-166.33792,294.13237)" />
    <g
       id="g5268"
       transform="translate(-166.33792,294.13237)" />
    <g
       id="g5270"
       transform="translate(-166.33792,294.13237)" />
    <g
       id="g5272"
       transform="translate(-166.33792,294.13237)" />
    <g
       id="g5274"
       transform="translate(-166.33792,294.13237)" />
    <g
       id="g5276"
       transform="translate(-166.33792,294.13237)" />
    <g
       id="g5278"
       transform="translate(-166.33792,294.13237)" />
    <g
       id="g13265"
       transform="translate(438.66722,164.83376)" />
    <g
       id="g13267"
       transform="translate(438.66722,164.83376)" />
    <g
       id="g13269"
       transform="translate(438.66722,164.83376)" />
    <g
       id="g13271"
       transform="translate(438.66722,164.83376)" />
    <g
       id="g13273"
       transform="translate(438.66722,164.83376)" />
    <g
       id="g13275"
       transform="translate(438.66722,164.83376)" />
    <g
       id="g13277"
       transform="translate(438.66722,164.83376)" />
    <g
       id="g13279"
       transform="translate(438.66722,164.83376)" />
    <g
       id="g13281"
       transform="translate(438.66722,164.83376)" />
    <g
       id="g13283"
       transform="translate(438.66722,164.83376)" />
    <g
       id="g13285"
       transform="translate(438.66722,164.83376)" />
    <g
       id="g13287"
       transform="translate(438.66722,164.83376)" />
    <g
       id="g13289"
       transform="translate(438.66722,164.83376)" />
    <g
       id="g13291"
       transform="translate(438.66722,164.83376)" />
    <g
       id="g13293"
       transform="translate(438.66722,164.83376)" />
    <g
       id="g14693"
       transform="matrix(0.29856373,0,0,0.29856373,-111.50184,584.4361)">
      <g
         transform="matrix(1.1740405,0,0,1.1740405,949.28638,20.581795)"
         id="g14549">
        <g
           id="g5188"
           transform="matrix(0.74990707,0,0,0.72305151,-1222.4709,504.28659)">
          <path
             id="path5190"
             d="m 255.868,39.868 c -138.961,0 -251.351,108.738 -255.859,247.558 -0.141,4.316 1.453,8.414 4.484,11.539 3.016,3.113 7.234,4.902 11.562,4.902 l 63.82,0 c 4.422,0 8,-3.582 8,-8 l 336,0 c 0,4.418 3.578,8 8,8 l 63.812,0 c 4.336,0 8.555,-1.789 11.57,-4.91 3.023,-3.129 4.617,-7.23 4.469,-11.539 C 507.227,148.607 394.837,39.868 255.868,39.868 Z"
             style="fill:#74d24f"
             inkscape:connector-curvature="0" />
        </g>
        <g
           id="g5192"
           transform="matrix(0.74990707,0,0,0.72305151,-1222.4709,504.28659)">
          <path
             id="path5194"
             d="m 255.868,39.868 c -0.042,0 -0.083,0.003 -0.125,0.003 l 0,255.997 128.753,-221.74 C 346.74,52.325 302.834,39.868 255.868,39.868 Z"
             style="fill:#ffd200"
             inkscape:connector-curvature="0" />
        </g>
        <g
           id="g5196"
           transform="matrix(0.74990707,0,0,0.72305151,-1222.4709,504.28659)">
          <path
             id="path5198"
             d="m 431.876,303.868 63.812,0 c 4.336,0 8.555,-1.789 11.57,-4.91 3.023,-3.129 4.617,-7.23 4.469,-11.539 C 508.748,195.524 458.461,116.845 384.506,74.133 l -128.635,221.735 168.004,0 c 10e-4,4.418 3.579,8 8.001,8 z"
             style="fill:#ff4f19"
             inkscape:connector-curvature="0" />
        </g>
        <g
           id="g5200"
           transform="matrix(0.74990707,0,0,0.72305151,-1222.4709,504.28659)">
          <path
             id="path5202"
             d="M 384.506,74.133 255.871,295.868 477.916,167.961 C 455.557,128.984 423.347,96.565 384.506,74.133 Z"
             style="fill:#ff9600"
             inkscape:connector-curvature="0" />
        </g>
        <ellipse
           style="opacity:1;fill:#8b8996;fill-opacity:1;stroke:none;stroke-width:2.06392455;stroke-linecap:round;stroke-miterlimit:4;stroke-dasharray:2.06392453, 4.12784906;stroke-dashoffset:0;stroke-opacity:1"
           id="path14492"
           cx="-1030.5914"
           cy="718.21442"
           rx="149.73393"
           ry="141.61317" />
        <g
           id="g5208"
           transform="matrix(0.74990707,0,0,0.72305151,-1222.4709,504.28659)">
          <path
             id="path5210"
             d="m 413.524,138.212 c -2.828,-2.836 -7.328,-3.129 -10.516,-0.699 l -144,110.117 c -1.836,1.402 -2.969,3.523 -3.125,5.824 -0.148,2.301 0.695,4.559 2.328,6.188 l 33.883,33.883 c 1.508,1.504 3.539,2.344 5.656,2.344 0.172,0 0.352,-0.004 0.531,-0.02 2.297,-0.152 4.422,-1.289 5.82,-3.121 l 110.117,-144 c 2.439,-3.184 2.142,-7.68 -0.694,-10.516 z"
             style="fill:#ffffff"
             inkscape:connector-curvature="0" />
        </g>
        <g
           id="g5220"
           transform="matrix(0.74990707,0,0,0.72305151,-1222.4709,504.28659)">
          <circle
             id="circle5222"
             r="48"
             cy="295.86801"
             cx="255.871"
             style="fill:#5c546a" />
        </g>
        <g
           id="g5224"
           transform="matrix(0.74990707,0,0,0.72305151,-1222.4709,504.28659)">
          <circle
             id="circle5226"
             r="24"
             cy="295.86801"
             cx="255.871"
             style="fill:#b9bbc1" />
        </g>
        <g
           id="g5228"
           transform="matrix(0.74990707,0,0,0.72305151,-1222.4709,504.28659)">
          <g
             id="g5230">
            <path
               id="path5232"
               d="m 143.876,109.88 c 1.359,0 2.734,-0.344 3.992,-1.07 3.828,-2.211 5.141,-7.102 2.93,-10.93 L 134.69,69.976 c -4.717,2.518 -9.32,5.212 -13.853,8.011 l 16.101,27.894 c 1.485,2.565 4.172,3.999 6.938,3.999 z"
               style="fill:#5c546a"
               inkscape:connector-curvature="0" />
          </g>
          <g
             id="g5234">
            <path
               id="path5236"
               d="m 255.868,79.868 c 4.422,0 8,-3.582 8,-8 l 0,-31.804 c -2.663,-0.081 -5.317,-0.195 -8,-0.195 -2.683,0 -5.337,0.115 -8,0.195 l 0,31.805 c 0,4.417 3.578,7.999 8,7.999 z"
               style="fill:#5c546a"
               inkscape:connector-curvature="0" />
          </g>
          <g
             id="g5238">
            <path
               id="path5240"
               d="m 61.876,191.868 c 2.766,0 5.453,-1.434 6.937,-4 2.211,-3.828 0.898,-8.719 -2.93,-10.93 L 37.974,160.825 c -2.797,4.531 -5.442,9.165 -7.959,13.883 l 27.869,16.089 c 1.257,0.728 2.632,1.071 3.992,1.071 z"
               style="fill:#5c546a"
               inkscape:connector-curvature="0" />
          </g>
          <g
             id="g5242">
            <path
               id="path5244"
               d="M 377.049,69.975 360.938,97.88 c -2.211,3.828 -0.898,8.719 2.93,10.93 1.258,0.727 2.633,1.07 3.992,1.07 2.766,0 5.453,-1.434 6.938,-4 l 16.105,-27.895 c -4.533,-2.798 -9.137,-5.493 -13.854,-8.01 z"
               style="fill:#5c546a"
               inkscape:connector-curvature="0" />
          </g>
          <g
             id="g5246">
            <path
               id="path5248"
               d="m 473.768,160.826 -27.908,16.112 c -3.828,2.211 -5.141,7.102 -2.93,10.93 1.484,2.566 4.172,4 6.938,4 1.359,0 2.734,-0.344 3.992,-1.07 l 27.868,-16.089 c -2.517,-4.718 -5.163,-9.351 -7.96,-13.883 z"
               style="fill:#5c546a"
               inkscape:connector-curvature="0" />
          </g>
        </g>
      </g>
      <g
         transform="matrix(0.78310389,0,0,0.78310389,-106.51519,236.65872)"
         style="opacity:1"
         id="g14481">
        <path
           style="clip-rule:evenodd;fill:#f2f2f2;fill-rule:evenodd"
           inkscape:connector-curvature="0"
           d="m -44.438155,1112.0469 -148.883455,52.8367 -148.88345,-52.8367 -148.88346,52.8367 0,-367.33107 148.88346,-52.84081 148.88345,52.84081 148.883455,-52.84081 148.883455,52.84081 0,367.33107 -148.883455,-52.8367 z"
           id="path54454" />
        <path
           style="clip-rule:evenodd;fill:none;stroke:#6bc9f2;stroke-width:20.00905991;stroke-miterlimit:10"
           inkscape:connector-curvature="0"
           stroke-miterlimit="10"
           d="m -401.75845,996.81482 0,-117.64811 59.48192,-21.03381 148.95492,58.84927 148.883455,-50.42062 71.464058,16.80687"
           id="path54456" />
        <path
           style="clip-rule:evenodd;fill:none;stroke:#e64c3c;stroke-width:20.00905991;stroke-miterlimit:10"
           inkscape:connector-curvature="0"
           stroke-miterlimit="10"
           d="m -401.75845,1001.0165 0,-33.61371 59.55339,-21.00859 148.88345,54.6223 148.883455,-46.21886 71.464058,-21.0086 0,-54.62233"
           id="path54458" />
        <path
           style="clip-rule:evenodd;fill:none;stroke:#f29c1f;stroke-width:20.00905991;stroke-miterlimit:10"
           inkscape:connector-curvature="0"
           stroke-miterlimit="10"
           d="m -401.75845,1001.0165 208.43684,75.631 101.240749,-33.6138 0,-117.64809 119.106764,-42.01719"
           id="path54460" />
        <path
           style="clip-rule:evenodd;fill:#ffffff;fill-rule:evenodd"
           inkscape:connector-curvature="0"
           d="m 27.025903,898.07444 c -11.493802,0 -20.8436833,-6.5967 -20.8436833,-14.70602 0,-8.10931 9.3498813,-14.70601 20.8436833,-14.70601 11.493803,0 20.843684,6.5967 20.843684,14.70601 0,8.10932 -9.349881,14.70602 -20.843684,14.70602 z"
           id="path54462" />
        <path
           style="fill:#2980ba"
           inkscape:connector-curvature="0"
           d="m 27.025903,874.96499 c 6.568738,0 11.910677,3.76894 11.910677,8.40343 0,4.6345 -5.341939,8.40344 -11.910677,8.40344 -6.568738,0 -11.910676,-3.76894 -11.910676,-8.40344 0,-4.63449 5.341938,-8.40343 11.910676,-8.40343 m 0,-12.60516 c -16.442688,0 -29.7766906,9.40765 -29.7766906,21.00859 0,11.60095 13.3340026,21.0086 29.7766906,21.0086 16.442689,0 29.776691,-9.40765 29.776691,-21.0086 0,-11.60094 -13.334002,-21.00859 -29.776691,-21.00859 z"
           id="path54464" />
        <path
           style="clip-rule:evenodd;fill:#ffffff;fill-rule:evenodd"
           inkscape:connector-curvature="0"
           d="m -401.75845,1015.7226 c -11.4938,0 -20.84368,-6.5967 -20.84368,-14.7061 0,-8.10928 9.34988,-14.70598 20.84368,-14.70598 11.49381,0 20.84369,6.5967 20.84369,14.70598 0,8.1094 -9.34988,14.7061 -20.84369,14.7061 z"
           id="path54466" />
        <path
           style="fill:#2980ba"
           inkscape:connector-curvature="0"
           d="m -401.75845,992.6131 c 6.56874,0 11.91068,3.76894 11.91068,8.4034 0,4.6345 -5.34194,8.4035 -11.91068,8.4035 -6.56874,0 -11.91067,-3.769 -11.91067,-8.4035 0,-4.63446 5.34193,-8.4034 11.91067,-8.4034 m 0,-12.60516 c -16.44269,0 -29.77669,9.40765 -29.77669,21.00856 0,11.601 13.334,21.0086 29.77669,21.0086 16.44269,0 29.77669,-9.4076 29.77669,-21.0086 0,-11.60091 -13.334,-21.00856 -29.77669,-21.00856 z"
           id="path54468" />
        <path
           style="clip-rule:evenodd;opacity:0.15;fill:#2c3e50;fill-rule:evenodd"
           inkscape:connector-curvature="0"
           d="m -491.08852,1164.8836 148.88346,-52.8409 0,-367.33098 -148.88346,52.84081 0,367.33107 z m 297.76691,-367.33107 0,367.33107 148.883455,-52.8409 0,-367.33098 -148.883455,52.84081 z"
           id="path54470" />
      </g>
      <g
         id="g14632"
         transform="matrix(0.38148678,0,0,0.38148678,-312.00367,818.82115)"
         style="opacity:1">
        <g
           id="g14634"
           transform="translate(-92.443871,-105.34302)">
          <g
             inkscape:path-effect="#path-effect13569"
             id="g14636"
             transform="translate(438.66722,164.83376)">
            <path
               inkscape:original-d="m 352,272 a 96,96 0 0 1 -96,96 96,96 0 0 1 -96,-96 96,96 0 0 1 96,-96 96,96 0 0 1 96,96 z"
               id="path14638"
               d="m 352,272 a 96,96 0 0 1 -96,96 96,96 0 0 1 -96,-96 96,96 0 0 1 96,-96 96,96 0 0 1 96,96 z"
               style="fill:#ffef43"
               inkscape:connector-curvature="0" />
          </g>
          <g
             id="g14640"
             transform="translate(438.66722,164.83376)">
            <path
               id="path14642"
               d="m 160,272 c 0,53.019 42.98,96 96,96 l 0,-192 c -53.02,0 -96,42.98 -96,96 z"
               style="fill:#ffd200"
               inkscape:connector-curvature="0" />
          </g>
          <g
             id="g14644"
             transform="translate(438.66722,164.83376)">
            <path
               id="path14646"
               d="m 291.548,260.126 -32.724,0 5.432,-43.937 c 0.633,-4.179 -0.826,-4.762 -3.243,-1.294 l -39.051,54.756 c -2.417,3.468 -0.936,6.306 3.291,6.306 l 28.532,0 -5.859,51.853 c -0.633,4.179 0.826,4.762 3.243,1.293 l 43.67,-62.673 c 2.417,-3.467 0.936,-6.304 -3.291,-6.304 z"
               style="fill:#ff4f19"
               inkscape:connector-curvature="0" />
          </g>
        </g>
      </g>
    </g>
  </g>
</svg>
